<mxfile host="Electron" modified="2024-02-09T16:10:47.092Z" agent="Mozilla/5.0 (X11; Linux x86_64) AppleWebKit/537.36 (KHTML, like Gecko) draw.io/22.1.21 Chrome/120.0.6099.109 Electron/28.1.0 Safari/537.36" etag="arD4breZTTIleTw6NOba" version="22.1.21" type="device">
  <diagram name="PÃ¡gina-1" id="O7MBfEGZBoNdr1yW5oVu">
    <mxGraphModel dx="2024" dy="1267" grid="1" gridSize="10" guides="1" tooltips="1" connect="1" arrows="1" fold="1" page="1" pageScale="1" pageWidth="827" pageHeight="1169" math="0" shadow="0">
      <root>
        <mxCell id="0" />
        <mxCell id="1" parent="0" />
        <mxCell id="yPSDT-vUB1oBA1HIcaDu-102" value="" style="group;fillColor=#232136;strokeColor=#232136;strokeWidth=30;fontStyle=0;container=0;" parent="1" vertex="1" connectable="0">
          <mxGeometry x="480" y="123.5" width="648.08" height="256.5" as="geometry" />
        </mxCell>
        <mxCell id="yPSDT-vUB1oBA1HIcaDu-2" value="Deserialize AdditionOrder" style="rounded=1;whiteSpace=wrap;html=1;strokeColor=#DB918D;fontColor=#FFFFFF;fillColor=none;strokeWidth=3;container=0;fontStyle=0" vertex="1" parent="1">
          <mxGeometry x="582.4300000000001" y="131.5" width="120" height="39" as="geometry" />
        </mxCell>
        <mxCell id="yPSDT-vUB1oBA1HIcaDu-3" style="edgeStyle=orthogonalEdgeStyle;shape=connector;curved=0;rounded=1;orthogonalLoop=1;jettySize=auto;html=1;labelBackgroundColor=default;strokeColor=#DB918D;strokeWidth=3;align=center;verticalAlign=middle;fontFamily=Helvetica;fontSize=12;fontColor=#FFFFFF;endArrow=openThin;endFill=0;fillColor=#FAE5C7;fontStyle=0" edge="1" parent="1" source="yPSDT-vUB1oBA1HIcaDu-4" target="yPSDT-vUB1oBA1HIcaDu-2">
          <mxGeometry relative="1" as="geometry" />
        </mxCell>
        <mxCell id="yPSDT-vUB1oBA1HIcaDu-4" value="Start" style="ellipse;whiteSpace=wrap;html=1;aspect=fixed;strokeColor=#DB918D;fontColor=#FFFFFF;fillColor=none;strokeWidth=3;container=0;fontStyle=0" vertex="1" parent="1">
          <mxGeometry x="497.4300000000001" y="126" width="50" height="50" as="geometry" />
        </mxCell>
        <mxCell id="yPSDT-vUB1oBA1HIcaDu-6" value="Build ContainerCreationOptions &lt;br&gt;(Use image, env_vars and args)" style="rounded=1;whiteSpace=wrap;html=1;strokeColor=#DB918D;fontColor=#FFFFFF;fillColor=none;strokeWidth=3;container=0;fontStyle=0" vertex="1" parent="1">
          <mxGeometry x="561.71" y="212.5" width="161.43" height="70" as="geometry" />
        </mxCell>
        <mxCell id="yPSDT-vUB1oBA1HIcaDu-1" style="edgeStyle=orthogonalEdgeStyle;shape=connector;curved=0;rounded=1;orthogonalLoop=1;jettySize=auto;html=1;labelBackgroundColor=default;strokeColor=#DB918D;strokeWidth=3;align=center;verticalAlign=middle;fontFamily=Helvetica;fontSize=12;fontColor=#FFFFFF;endArrow=openThin;endFill=0;fillColor=#FAE5C7;fontStyle=0" edge="1" parent="1" source="yPSDT-vUB1oBA1HIcaDu-2" target="yPSDT-vUB1oBA1HIcaDu-6">
          <mxGeometry relative="1" as="geometry" />
        </mxCell>
        <mxCell id="yPSDT-vUB1oBA1HIcaDu-9" value="Creation &lt;br&gt;successful?" style="rhombus;whiteSpace=wrap;html=1;rounded=0;strokeColor=#DB918D;strokeWidth=3;align=center;verticalAlign=middle;fontFamily=Helvetica;fontSize=11;fontColor=#FFFFFF;fillColor=none;spacingTop=-1;container=0;fontStyle=0" vertex="1" parent="1">
          <mxGeometry x="746.5900000000001" y="220.5" width="107.27" height="54" as="geometry" />
        </mxCell>
        <mxCell id="yPSDT-vUB1oBA1HIcaDu-5" style="edgeStyle=orthogonalEdgeStyle;shape=connector;curved=0;rounded=1;orthogonalLoop=1;jettySize=auto;html=1;labelBackgroundColor=default;strokeColor=#DB918D;strokeWidth=3;align=center;verticalAlign=middle;fontFamily=Helvetica;fontSize=12;fontColor=#FFFFFF;endArrow=openThin;endFill=0;fillColor=#FAE5C7;fontStyle=0" edge="1" parent="1" source="yPSDT-vUB1oBA1HIcaDu-6" target="yPSDT-vUB1oBA1HIcaDu-9">
          <mxGeometry relative="1" as="geometry" />
        </mxCell>
        <mxCell id="yPSDT-vUB1oBA1HIcaDu-11" value="Return &lt;br&gt;400 Bad Request&amp;nbsp;" style="rounded=1;whiteSpace=wrap;html=1;strokeColor=#DB918D;fontColor=#FFFFFF;fillColor=none;strokeWidth=3;container=0;fontStyle=0" vertex="1" parent="1">
          <mxGeometry x="749.8600000000001" y="316.5" width="100.72" height="40" as="geometry" />
        </mxCell>
        <mxCell id="yPSDT-vUB1oBA1HIcaDu-7" style="edgeStyle=orthogonalEdgeStyle;shape=connector;curved=0;rounded=1;orthogonalLoop=1;jettySize=auto;html=1;exitX=0.5;exitY=1;exitDx=0;exitDy=0;labelBackgroundColor=default;strokeColor=#DB918D;strokeWidth=3;align=center;verticalAlign=middle;fontFamily=Helvetica;fontSize=12;fontColor=#FFFFFF;endArrow=openThin;endFill=0;fillColor=#FAE5C7;fontStyle=0" edge="1" parent="1" source="yPSDT-vUB1oBA1HIcaDu-9" target="yPSDT-vUB1oBA1HIcaDu-11">
          <mxGeometry relative="1" as="geometry" />
        </mxCell>
        <mxCell id="yPSDT-vUB1oBA1HIcaDu-12" value="End" style="ellipse;whiteSpace=wrap;html=1;aspect=fixed;strokeColor=#DB918D;fontColor=#FFFFFF;fillColor=none;strokeWidth=3;container=0;fontStyle=0" vertex="1" parent="1">
          <mxGeometry x="928.49" y="311.5" width="50" height="50" as="geometry" />
        </mxCell>
        <mxCell id="yPSDT-vUB1oBA1HIcaDu-10" value="" style="edgeStyle=orthogonalEdgeStyle;shape=connector;curved=0;rounded=1;orthogonalLoop=1;jettySize=auto;html=1;labelBackgroundColor=default;strokeColor=#DB918D;strokeWidth=3;align=center;verticalAlign=middle;fontFamily=Helvetica;fontSize=12;fontColor=#FFFFFF;endArrow=openThin;endFill=0;fillColor=#FAE5C7;fontStyle=0" edge="1" parent="1" source="yPSDT-vUB1oBA1HIcaDu-11" target="yPSDT-vUB1oBA1HIcaDu-12">
          <mxGeometry relative="1" as="geometry" />
        </mxCell>
        <mxCell id="yPSDT-vUB1oBA1HIcaDu-14" value="Build&amp;nbsp;&lt;br&gt;ContainerConnectionOpts&lt;br&gt;(use network name)" style="rounded=1;whiteSpace=wrap;html=1;strokeColor=#DB918D;fontColor=#FFFFFF;fillColor=none;strokeWidth=3;container=0;fontStyle=0" vertex="1" parent="1">
          <mxGeometry x="728.4100000000001" y="126.5" width="143.63" height="49" as="geometry" />
        </mxCell>
        <mxCell id="yPSDT-vUB1oBA1HIcaDu-8" style="edgeStyle=orthogonalEdgeStyle;shape=connector;curved=0;rounded=1;orthogonalLoop=1;jettySize=auto;html=1;labelBackgroundColor=default;strokeColor=#DB918D;strokeWidth=3;align=center;verticalAlign=middle;fontFamily=Helvetica;fontSize=12;fontColor=#FFFFFF;endArrow=openThin;endFill=0;fillColor=#FAE5C7;fontStyle=0" edge="1" parent="1" source="yPSDT-vUB1oBA1HIcaDu-9" target="yPSDT-vUB1oBA1HIcaDu-14">
          <mxGeometry relative="1" as="geometry" />
        </mxCell>
        <mxCell id="yPSDT-vUB1oBA1HIcaDu-17" value="Connection&lt;br&gt;successful?" style="rhombus;whiteSpace=wrap;html=1;rounded=0;strokeColor=#DB918D;strokeWidth=3;align=center;verticalAlign=middle;fontFamily=Helvetica;fontSize=11;fontColor=#FFFFFF;fillColor=none;spacingTop=-1;container=0;fontStyle=0" vertex="1" parent="1">
          <mxGeometry x="899.8600000000001" y="126.5" width="107.27" height="50.5" as="geometry" />
        </mxCell>
        <mxCell id="yPSDT-vUB1oBA1HIcaDu-13" style="edgeStyle=orthogonalEdgeStyle;shape=connector;curved=0;rounded=1;orthogonalLoop=1;jettySize=auto;html=1;labelBackgroundColor=default;strokeColor=#DB918D;strokeWidth=3;align=center;verticalAlign=middle;fontFamily=Helvetica;fontSize=12;fontColor=#FFFFFF;endArrow=openThin;endFill=0;fillColor=#FAE5C7;fontStyle=0" edge="1" parent="1" source="yPSDT-vUB1oBA1HIcaDu-14" target="yPSDT-vUB1oBA1HIcaDu-17">
          <mxGeometry relative="1" as="geometry" />
        </mxCell>
        <mxCell id="yPSDT-vUB1oBA1HIcaDu-18" style="edgeStyle=orthogonalEdgeStyle;shape=connector;curved=0;rounded=1;orthogonalLoop=1;jettySize=auto;html=1;exitX=0.5;exitY=1;exitDx=0;exitDy=0;entryX=1;entryY=0.5;entryDx=0;entryDy=0;labelBackgroundColor=default;strokeColor=#DB918D;strokeWidth=3;align=center;verticalAlign=middle;fontFamily=Helvetica;fontSize=12;fontColor=#FFFFFF;endArrow=openThin;endFill=0;fillColor=#FAE5C7;fontStyle=0" edge="1" parent="1" source="yPSDT-vUB1oBA1HIcaDu-19" target="yPSDT-vUB1oBA1HIcaDu-12">
          <mxGeometry relative="1" as="geometry" />
        </mxCell>
        <mxCell id="yPSDT-vUB1oBA1HIcaDu-19" value="Return &lt;br&gt;400 Bad Request&amp;nbsp;" style="rounded=1;whiteSpace=wrap;html=1;strokeColor=#DB918D;fontColor=#FFFFFF;fillColor=none;strokeWidth=3;container=0;fontStyle=0" vertex="1" parent="1">
          <mxGeometry x="1023.8600000000001" y="131" width="100.72" height="40" as="geometry" />
        </mxCell>
        <mxCell id="yPSDT-vUB1oBA1HIcaDu-15" value="" style="edgeStyle=orthogonalEdgeStyle;shape=connector;curved=0;rounded=1;orthogonalLoop=1;jettySize=auto;html=1;labelBackgroundColor=default;strokeColor=#DB918D;strokeWidth=3;align=center;verticalAlign=middle;fontFamily=Helvetica;fontSize=12;fontColor=#FFFFFF;endArrow=openThin;endFill=0;fillColor=#FAE5C7;fontStyle=0" edge="1" parent="1" source="yPSDT-vUB1oBA1HIcaDu-17" target="yPSDT-vUB1oBA1HIcaDu-19">
          <mxGeometry relative="1" as="geometry" />
        </mxCell>
        <mxCell id="yPSDT-vUB1oBA1HIcaDu-21" value="Start Container, add id to register" style="rounded=1;whiteSpace=wrap;html=1;strokeColor=#DB918D;fontColor=#FFFFFF;fillColor=none;strokeWidth=3;container=0;fontStyle=0" vertex="1" parent="1">
          <mxGeometry x="903.1300000000001" y="194.5" width="100.72" height="40" as="geometry" />
        </mxCell>
        <mxCell id="yPSDT-vUB1oBA1HIcaDu-16" style="edgeStyle=orthogonalEdgeStyle;shape=connector;curved=0;rounded=1;orthogonalLoop=1;jettySize=auto;html=1;exitX=0.5;exitY=1;exitDx=0;exitDy=0;entryX=0.5;entryY=0;entryDx=0;entryDy=0;labelBackgroundColor=default;strokeColor=#DB918D;strokeWidth=3;align=center;verticalAlign=middle;fontFamily=Helvetica;fontSize=12;fontColor=#FFFFFF;endArrow=openThin;endFill=0;fillColor=#FAE5C7;fontStyle=0" edge="1" parent="1" source="yPSDT-vUB1oBA1HIcaDu-17" target="yPSDT-vUB1oBA1HIcaDu-21">
          <mxGeometry relative="1" as="geometry" />
        </mxCell>
        <mxCell id="yPSDT-vUB1oBA1HIcaDu-22" value="" style="edgeStyle=orthogonalEdgeStyle;shape=connector;curved=0;rounded=1;orthogonalLoop=1;jettySize=auto;html=1;labelBackgroundColor=default;strokeColor=#DB918D;strokeWidth=3;align=center;verticalAlign=middle;fontFamily=Helvetica;fontSize=12;fontColor=#FFFFFF;endArrow=openThin;endFill=0;fillColor=#FAE5C7;fontStyle=0" edge="1" parent="1" source="yPSDT-vUB1oBA1HIcaDu-23" target="yPSDT-vUB1oBA1HIcaDu-12">
          <mxGeometry relative="1" as="geometry">
            <Array as="points">
              <mxPoint x="953.8600000000001" y="301.5" />
              <mxPoint x="953.8600000000001" y="301.5" />
            </Array>
          </mxGeometry>
        </mxCell>
        <mxCell id="yPSDT-vUB1oBA1HIcaDu-23" value="Return &lt;br&gt;200 OK&amp;nbsp;" style="rounded=1;whiteSpace=wrap;html=1;strokeColor=#DB918D;fontColor=#FFFFFF;fillColor=none;strokeWidth=3;container=0;fontStyle=0" vertex="1" parent="1">
          <mxGeometry x="903.1300000000001" y="252.5" width="100.72" height="40" as="geometry" />
        </mxCell>
        <mxCell id="yPSDT-vUB1oBA1HIcaDu-20" style="edgeStyle=orthogonalEdgeStyle;shape=connector;curved=0;rounded=1;orthogonalLoop=1;jettySize=auto;html=1;labelBackgroundColor=default;strokeColor=#DB918D;strokeWidth=3;align=center;verticalAlign=middle;fontFamily=Helvetica;fontSize=12;fontColor=#FFFFFF;endArrow=openThin;endFill=0;fillColor=#FAE5C7;fontStyle=0" edge="1" parent="1" source="yPSDT-vUB1oBA1HIcaDu-21" target="yPSDT-vUB1oBA1HIcaDu-23">
          <mxGeometry relative="1" as="geometry">
            <mxPoint x="953.49" y="261.5" as="targetPoint" />
          </mxGeometry>
        </mxCell>
        <mxCell id="yPSDT-vUB1oBA1HIcaDu-24" value="&lt;font&gt;No&lt;/font&gt;" style="text;html=1;strokeColor=none;fillColor=none;align=center;verticalAlign=middle;whiteSpace=wrap;rounded=0;fontColor=#FFFFFF;container=0;fontStyle=0" vertex="1" parent="1">
          <mxGeometry x="755.8600000000001" y="265.5" width="60" height="30" as="geometry" />
        </mxCell>
        <mxCell id="yPSDT-vUB1oBA1HIcaDu-25" value="&lt;font&gt;Yes&lt;/font&gt;" style="text;html=1;strokeColor=none;fillColor=none;align=center;verticalAlign=middle;whiteSpace=wrap;rounded=0;fontColor=#FFFFFF;container=0;fontStyle=0" vertex="1" parent="1">
          <mxGeometry x="755.5900000000001" y="198.5" width="60" height="30" as="geometry" />
        </mxCell>
        <mxCell id="yPSDT-vUB1oBA1HIcaDu-26" value="&lt;font&gt;Yes&lt;/font&gt;" style="text;html=1;strokeColor=none;fillColor=none;align=center;verticalAlign=middle;whiteSpace=wrap;rounded=0;fontColor=#FFFFFF;container=0;fontStyle=0" vertex="1" parent="1">
          <mxGeometry x="903.1300000000001" y="164.5" width="60" height="30" as="geometry" />
        </mxCell>
        <mxCell id="yPSDT-vUB1oBA1HIcaDu-27" value="&lt;font&gt;No&lt;/font&gt;" style="text;html=1;strokeColor=none;fillColor=none;align=center;verticalAlign=middle;whiteSpace=wrap;rounded=0;fontColor=#FFFFFF;container=0;fontStyle=0" vertex="1" parent="1">
          <mxGeometry x="979.49" y="123.5" width="60" height="30" as="geometry" />
        </mxCell>
      </root>
    </mxGraphModel>
  </diagram>
</mxfile>
